<svg xmlns="http://www.w3.org/2000/svg" width="84" height="45" viewBox="0 0 84 45" fill="none"><path d="M28.8257 7.56522C30.9148 7.56522 32.6083 5.87169 32.6083 3.78261C32.6083 1.69353 30.9148 0 28.8257 0C26.7367 0 25.0431 1.69353 25.0431 3.78261C25.0431 5.87169 26.7367 7.56522 28.8257 7.56522Z" fill="black"></path><path d="M25.9565 10.3043H31.5652C31.8261 10.3043 32.087 10.5652 32.087 10.8261V44.4783C32.087 44.7391 31.8261 45 31.5652 45H25.9565C25.6957 45 25.4348 44.7391 25.4348 44.4783V10.8261C25.4348 10.5652 25.6957 10.3043 25.9565 10.3043ZM38.2174 0H43.8261C44.087 0 44.3478 0.26087 44.3478 0.521739V44.3478C44.3478 44.6087 44.087 44.8696 43.8261 44.8696H38.2174C37.9565 44.8696 37.6957 44.6087 37.6957 44.3478V0.521739C37.6957 0.26087 37.9565 0 38.2174 0V0ZM19.6957 10.3043H6.65217V0.521739C6.65217 0.26087 6.3913 0 6.13044 0H0.521739C0.26087 0 0 0.26087 0 0.521739V27.5217C0 37.0435 7.82609 44.8696 17.3478 44.8696H19.6957C19.9565 44.8696 20.2174 44.6087 20.2174 44.3478V38.7391C20.2174 38.4783 19.9565 38.2174 19.6957 38.2174H17.3478C11.4783 38.2174 6.65217 33.3913 6.65217 27.5217V16.8261H19.6957C19.9565 16.8261 20.2174 16.5652 20.2174 16.3043V10.6957C20.2174 10.4348 19.9565 10.3043 19.6957 10.3043V10.3043ZM78.1304 15.3913C71.3478 8.73913 60.5217 8.73913 53.7391 15.3913C46.9565 22.0435 47.087 33 53.7391 39.7826C60.3913 46.5652 71.3478 46.4348 78.1304 39.7826C79.3044 38.6087 80.3478 37.3044 81.1304 35.7391C81.1304 35.6087 81 35.4783 80.8696 35.4783H73.6957L72.913 35.7391C68.4783 39.6522 61.6957 39.1304 57.7826 34.5652C56.6087 33.1304 55.6957 31.4348 55.4348 29.6087C55.4348 29.3478 55.5652 29.2174 55.8261 29.2174H82.6957C82.9565 29.2174 83.2174 28.9565 83.2174 28.6957V27.6522C83.2174 23.087 81.3913 18.6522 78.1304 15.3913V15.3913ZM75 23.2174H56.7391C56.4783 23.2174 56.3478 23.087 56.3478 22.8261C58.1739 19.3043 61.8261 17.087 65.7391 17.087C69.6522 17.087 73.3044 19.3043 75.1304 22.8261C75.1304 22.9565 75.1304 23.087 75 23.2174V23.2174Z" fill="black"></path></svg>