<svg xmlns="http://www.w3.org/2000/svg" width="180" height="16" viewBox="0 0 180 16" fill="none"><path d="M35.846 7.42468H32.4281V4.58875H35.846V7.42468Z" fill="#E15B46"></path><path d="M35.846 11.4733H32.4281V8.63739H35.846V11.4733Z" fill="#E15B46"></path><path d="M35.846 15.522H32.4281V12.686H35.846V15.522Z" fill="#E15B46"></path><path d="M11.7125 12.9839C10.5662 14.7138 8.62801 15.8391 6.41902 15.8391C2.876 15.8391 0 12.9631 0 9.06594V6.81507C0 2.77184 3.08432 0 7.21094 0C10.4828 0 13.3173 1.66726 14.1926 4.33494L11.0247 5.43953C10.5038 4.04323 8.94066 3.0845 7.19 3.0845C4.93931 3.0845 3.33452 4.66854 3.33452 6.81507V9.06594C3.33452 11.2542 4.83498 12.7546 6.68979 12.7546C8.35705 12.7546 9.73277 11.5459 10.0452 9.98279H6.66903V7.06509H14.7136V15.5267H11.7125V12.9839Z" fill="#E15B46"></path><path d="M20.5698 12.4629H26.9054V15.5267H17.1517V0.312656H26.8012V3.37621H20.5698V6.37732H26.2176V9.42012H20.5698V12.4629Z" fill="#E15B46"></path><path d="M39.91 3.37621H28.3641V0.312475H39.91V3.37621Z" fill="#E15B46"></path><path d="M108.556 15.5267L104.409 9.71183C106.431 9.0867 107.848 7.31528 107.848 5.14781C107.848 2.39673 105.576 0.312655 102.7 0.312655H100.699V3.39697H102.575C103.575 3.39697 104.347 4.18909 104.347 5.23103C104.347 6.27316 103.575 7.06509 102.575 7.06509H100.699V9.98297L104.409 15.5267H108.556ZM99.6769 11.6926L97.9099 9.82502L99.6542 7.935L97.8869 6.06737L99.6313 4.17843L97.8636 2.31026L99.8096 0.314642H96.2632L94.3409 2.33192L96.1079 4.19973L94.3638 6.08867L96.1312 7.95684L94.3871 9.84686L96.1547 11.7149L94.4105 13.6054L96.2857 15.5496H99.8484L97.9324 13.5837L99.6769 11.6926ZM52.4639 15.5267H55.8818V9.75353L61.6132 0.312655H57.7576L54.1519 6.54393L50.5883 0.312655H46.7327L52.4639 9.79523V15.5267ZM91.8948 9.60767V0.312655H88.4977V9.67013C88.4977 11.421 87.2472 12.7131 85.5383 12.7131C83.8293 12.7131 82.5789 11.421 82.5789 9.67013V0.312655H79.1817V9.60767C79.1817 13.1924 81.8702 15.8393 85.5383 15.8393C89.2062 15.8393 91.8948 13.1924 91.8948 9.60767ZM69.1157 0V3.20942C71.6166 3.20942 73.5965 5.25197 73.5965 7.91966C73.5965 10.5873 71.6166 12.6295 69.1157 12.6295C66.6148 12.6295 64.6349 10.5873 64.6349 7.91966H61.1336C61.1336 12.3588 64.6764 15.8393 69.1157 15.8393C73.5548 15.8393 77.0978 12.3588 77.0978 7.91966C77.0978 3.48055 73.5548 0 69.1157 0ZM64.76 2.18823C64.76 3.20942 65.552 3.98077 66.5524 3.98077C67.5524 3.98077 68.3446 3.20942 68.3446 2.18823C68.3446 1.16704 67.5524 0.396055 66.5524 0.396055C65.552 0.396055 64.76 1.16704 64.76 2.18823ZM61.5919 5.39783C61.5919 4.37664 62.3841 3.60547 63.3845 3.60547C64.3847 3.60547 65.1767 4.37664 65.1767 5.39783C65.1767 6.41901 64.3847 7.19018 63.3845 7.19018C62.3841 7.19018 61.5919 6.41901 61.5919 5.39783Z" fill="#E15B46"></path><path fill-rule="evenodd" clip-rule="evenodd" d="M125.424 9.98279H122.048V7.06508H130.093V15.5267H127.091V12.9839C125.945 14.7138 124.007 15.8391 121.798 15.8391C118.255 15.8391 115.379 12.9631 115.379 9.06594V6.81489C115.379 2.77184 118.463 0 122.59 0C125.862 0 128.696 1.66726 129.572 4.33494L126.404 5.43953C125.883 4.04305 124.32 3.0845 122.569 3.0845C120.318 3.0845 118.713 4.66854 118.713 6.81489V9.06594C118.713 11.2542 120.214 12.7548 122.069 12.7548C123.736 12.7548 125.112 11.5459 125.424 9.98279ZM151.637 7.47385L151.636 7.47414C151.314 7.76495 151.278 7.81099 151.274 7.90919C151.278 8.00721 151.314 8.05342 151.636 8.34405L151.637 8.34463C152.142 8.80032 152.986 9.56242 152.986 10.9594C152.986 12.3568 152.141 13.1189 151.637 13.5744L151.636 13.5747C151.614 13.5948 151.593 13.6137 151.574 13.6316C151.322 13.8966 151.278 14.2775 151.272 14.4564V15.5267H147.849L147.85 14.1029L147.849 14.0854C147.849 14.0737 147.849 14.0619 147.849 14.0498C147.849 12.6523 148.693 11.8901 149.198 11.4347C149.561 11.107 149.561 11.0903 149.561 10.9594C149.561 10.8287 149.561 10.8119 149.198 10.4843C148.712 10.046 147.914 9.32173 147.855 8.02219H147.851C147.851 8.01174 147.851 8.00151 147.85 7.99128V7.99125V7.99121V7.99118V7.99114C147.849 7.97739 147.849 7.96362 147.849 7.94926C147.849 7.94187 147.849 7.93474 147.849 7.92762C147.85 7.92152 147.85 7.91543 147.85 7.90919L147.85 7.90711L147.85 7.90049L147.849 7.89076L147.849 7.88056L147.849 7.86911C147.849 7.85486 147.849 7.8412 147.85 7.82752V7.82748V7.82744V7.82739V7.82734V7.8273L147.851 7.80866L147.851 7.796H147.855C147.914 6.49664 148.712 5.77241 149.198 5.33411C149.561 5.00647 149.561 4.98968 149.561 4.8588C149.561 4.72811 149.561 4.71132 149.198 4.38386L149.198 4.3837C148.693 3.92805 147.849 3.16593 147.849 1.76853L147.849 1.75052V1.7504V1.75028V1.75017V1.75005V1.74994C147.849 1.73834 147.848 1.7269 147.849 1.71546V0.291901H151.272V1.36201C151.278 1.5409 151.322 1.92179 151.574 2.18697L151.636 2.24365L151.637 2.24394C152.141 2.69942 152.986 3.46153 152.986 4.8588C152.986 6.25626 152.141 7.01837 151.637 7.47385ZM141.784 9.67031C141.784 11.4208 140.534 12.7129 138.825 12.7129C137.116 12.7129 135.865 11.4208 135.865 9.67031V0.312479H132.468V9.60767C132.468 13.1924 135.157 15.8391 138.825 15.8391C142.493 15.8391 145.181 13.1924 145.181 9.60767V0.312479H141.784V9.67031ZM160.159 15.5267C164.869 15.5267 168.204 12.2963 168.204 7.91948C168.204 3.54283 164.869 0.291901 160.159 0.291901H155.137V15.5267H160.159ZM173.664 12.4629V9.42012H179.312V6.37732H173.664V3.37622H179.896V0.312479H170.246V15.5267H180V12.4629H173.664ZM164.883 7.92985C164.883 5.3248 163.153 3.36583 160.61 3.36583H158.735V12.4733H160.61C163.153 12.4733 164.883 10.5351 164.883 7.92985Z" fill="#E15B46"></path></svg>