<svg width="53" height="40" viewBox="0 0 53 40" fill="none" xmlns="http://www.w3.org/2000/svg">
<g clip-path="url(#clip0_526_3)">
<path fill-rule="evenodd" clip-rule="evenodd" d="M49.798 36.104H42.328V16.184C42.3281 15.2614 42.1232 14.3504 41.7279 13.5168C41.3326 12.6832 40.757 11.9479 40.0426 11.3642C39.3282 10.7804 38.4929 10.3628 37.5973 10.1416C36.7017 9.92035 35.768 9.90102 34.864 10.085C35.6739 9.25617 36.6414 8.5978 37.7096 8.1487C38.7779 7.69959 39.9252 7.46883 41.084 7.47C42.2284 7.47 43.3616 7.69543 44.4189 8.13341C45.4762 8.57139 46.4369 9.21335 47.2461 10.0226C48.0553 10.8319 48.6971 11.7926 49.135 12.85C49.5728 13.9073 49.7981 15.0406 49.798 16.185V36.104ZM29.878 16.184V23.654C29.8777 25.0906 29.5224 26.5048 28.8436 27.7709C28.1648 29.0371 27.1836 30.1158 25.9873 30.9112C24.791 31.7066 23.4167 32.194 21.9865 32.33C20.5564 32.4661 19.1148 32.2466 17.79 31.691C16.7221 31.2418 15.7547 30.5836 14.945 29.755C15.849 29.9384 16.7825 29.9187 17.6779 29.6972C18.5733 29.4757 19.4083 29.0579 20.1225 28.4742C20.8368 27.8904 21.4123 27.1552 21.8076 26.3218C22.2028 25.4883 22.4079 24.5774 22.408 23.655V16.185C22.408 8.622 28.54 2.491 36.103 2.491C39.423 2.491 42.467 3.673 44.838 5.639C43.6334 5.20558 42.3632 4.98267 41.083 4.98C34.895 4.98 29.878 9.996 29.878 16.184ZM16.184 37.351C8.62 37.351 2.49 31.219 2.49 23.655V3.736H9.959V23.654C9.959 29.843 14.976 34.86 21.164 34.86C22.483 34.86 23.743 34.62 24.918 34.201C22.4646 36.24 19.3741 37.3547 16.184 37.351ZM36.104 0C27.164 0 19.919 7.247 19.919 16.185V23.655C19.919 24.6456 19.5255 25.5956 18.825 26.296C18.1246 26.9965 17.1746 27.39 16.184 27.39C15.1934 27.39 14.2434 26.9965 13.543 26.296C12.8425 25.5956 12.449 24.6456 12.449 23.655V1.244H0V23.654C0 32.593 7.246 39.838 16.185 39.838C24.737 39.838 31.721 33.201 32.312 24.8C32.349 24.423 32.369 24.041 32.369 23.653V16.183C32.369 15.1924 32.7625 14.2424 33.463 13.542C34.1634 12.8415 35.1134 12.448 36.104 12.448C37.0946 12.448 38.0446 12.8415 38.745 13.542C39.4455 14.2424 39.839 15.1924 39.839 16.183V38.593H52.289V16.183C52.289 15.798 52.269 15.415 52.231 15.038C51.64 6.638 44.655 0.001 36.103 0.001L36.104 0Z" fill="#040237"/>
</g>
<defs>
<clipPath id="clip0_526_3">
<rect width="53" height="40" fill="white"/>
</clipPath>
</defs>
</svg>
